<?xml version="1.0" encoding="UTF-8"?>
<svg xmlns="http://www.w3.org/2000/svg" xmlns:xlink="http://www.w3.org/1999/xlink" viewBox="0 0 60 60" width="60px" height="60px">
<g id="surface37466606">
<path style=" stroke:none;fill-rule:nonzero;fill:rgb(100%,100%,100%);fill-opacity:1;" d="M 29.96875 4.972656 C 28.867188 4.988281 27.984375 5.898438 28 7 L 28 8 L 17 8 C 16.464844 7.992188 15.949219 8.199219 15.566406 8.574219 C 15.1875 8.953125 14.972656 9.464844 14.972656 10 L 12 10 C 11.277344 9.988281 10.609375 10.367188 10.246094 10.992188 C 9.878906 11.613281 9.878906 12.386719 10.246094 13.007812 C 10.609375 13.632812 11.277344 14.011719 12 14 L 48 14 C 48.722656 14.011719 49.390625 13.632812 49.753906 13.007812 C 50.121094 12.386719 50.121094 11.613281 49.753906 10.992188 C 49.390625 10.367188 48.722656 9.988281 48 10 L 45.027344 10 C 45.027344 9.464844 44.8125 8.953125 44.433594 8.574219 C 44.050781 8.199219 43.535156 7.992188 43 8 L 32 8 L 32 7 C 32.007812 6.460938 31.796875 5.9375 31.414062 5.558594 C 31.03125 5.175781 30.507812 4.964844 29.96875 4.972656 Z M 12 18 L 15.585938 48.46875 C 15.820312 50.484375 17.527344 52 19.554688 52 L 40.445312 52 C 42.472656 52 44.175781 50.484375 44.414062 48.46875 L 48 18 Z M 12 18 "/>
</g>
</svg>
